<?xml version="1.0" standalone="no"?>
<!DOCTYPE svg PUBLIC "-//W3C//DTD SVG 20010904//EN"
 "http://www.w3.org/TR/2001/REC-SVG-20010904/DTD/svg10.dtd">
<svg version="1.0" xmlns="http://www.w3.org/2000/svg"
 width="394.000000pt" height="394.000000pt" viewBox="0 0 394.000000 394.000000"
 preserveAspectRatio="xMidYMid meet">
<metadata>
Created by potrace 1.14, written by Peter Selinger 2001-2017
</metadata>
<g transform="translate(0.000000,394.000000) scale(0.100000,-0.100000)"
fill="#000000" stroke="none">
<path d="M2242 3918 c-13 -6 -39 -38 -59 -69 l-36 -58 -24 19 c-37 29 -119 53
-157 46 -33 -6 -86 -46 -86 -64 0 -20 85 -41 152 -39 75 2 108 -14 76 -37 -10
-7 -18 -18 -18 -25 0 -6 -3 -11 -7 -12 -5 0 -100 -2 -213 -3 -222 -3 -268 -10
-365 -59 -78 -39 -181 -143 -219 -221 -54 -113 -55 -129 -53 -773 l2 -593
-147 -1 c-191 -2 -191 -2 -195 -16 -7 -19 25 -133 54 -191 46 -94 152 -164
249 -164 l34 0 1 -141 c3 -628 5 -700 27 -767 61 -186 222 -321 413 -346 l49
-7 0 -68 0 -69 -192 0 c-174 0 -196 -2 -225 -20 -44 -26 -64 -61 -65 -109 0
-48 21 -84 65 -111 30 -19 53 -20 360 -20 l327 0 1 28 c0 15 0 105 0 199 l-1
173 163 0 162 0 -1 -200 0 -200 322 0 c204 0 333 4 351 11 46 17 72 48 79 95
8 55 -8 97 -50 127 -29 21 -43 22 -228 25 -177 3 -198 5 -199 20 -1 18 -1 90
0 107 1 6 31 16 68 22 142 25 285 127 352 253 64 120 61 54 61 1380 0 776 -4
1221 -11 1249 -37 163 -164 300 -333 359 -66 23 -86 25 -285 27 l-214 3 -23
29 -22 28 26 28 c15 16 43 36 62 45 43 21 91 99 69 113 -19 12 -69 10 -97 -3z"/>
</g>
</svg>
